<svg width="567" height="567" viewBox="0 0 567 567" fill="none" xmlns="http://www.w3.org/2000/svg">
<g filter="url(#filter0_d_590_3933)">
<path d="M87.8203 218.497C87.8203 152.829 87.8203 119.995 108.221 99.594C128.621 79.1934 161.456 79.1934 227.124 79.1934H340.309C405.977 79.1934 438.811 79.1934 459.212 99.594C479.613 119.995 479.613 152.829 479.613 218.497V331.682C479.613 397.35 479.613 430.185 459.212 450.585C438.811 470.986 405.977 470.986 340.309 470.986H227.124C161.456 470.986 128.621 470.986 108.221 450.585C87.8203 430.185 87.8203 397.35 87.8203 331.682V218.497Z" fill="white"/>
<path d="M108.221 450.585L106.682 452.124L108.221 450.585ZM459.212 450.585L460.751 452.124L459.212 450.585ZM459.212 99.594L460.751 98.0548L459.212 99.594ZM108.221 99.594L106.682 98.0548L108.221 99.594ZM227.124 81.37H340.309V77.0167H227.124V81.37ZM477.436 218.497V331.682H481.789V218.497H477.436ZM340.309 468.809H227.124V473.162H340.309V468.809ZM89.9969 331.682V218.497H85.6437V331.682H89.9969ZM227.124 468.809C194.229 468.809 169.776 468.804 150.987 466.278C132.261 463.761 119.488 458.775 109.76 449.046L106.682 452.124C117.354 462.796 131.199 468.01 150.407 470.593C169.553 473.167 194.352 473.162 227.124 473.162V468.809ZM85.6437 331.682C85.6437 364.454 85.6391 389.253 88.2132 408.399C90.7957 427.608 96.0097 441.452 106.682 452.124L109.76 449.046C100.032 439.318 95.0452 426.545 92.5276 407.819C90.0016 389.03 89.9969 364.578 89.9969 331.682H85.6437ZM477.436 331.682C477.436 364.577 477.431 389.03 474.905 407.819C472.388 426.545 467.401 439.318 457.673 449.046L460.751 452.124C471.423 441.452 476.637 427.608 479.22 408.399C481.794 389.253 481.789 364.454 481.789 331.682H477.436ZM340.309 473.162C373.081 473.162 397.88 473.167 417.026 470.593C436.234 468.01 450.079 462.796 460.751 452.124L457.673 449.046C447.944 458.775 435.172 463.761 416.446 466.278C397.657 468.804 373.205 468.809 340.309 468.809V473.162ZM340.309 81.37C373.204 81.37 397.657 81.3746 416.446 83.9006C435.172 86.4183 447.944 91.4046 457.673 101.133L460.751 98.0548C450.079 87.3827 436.234 82.1687 417.026 79.5862C397.88 77.0121 373.081 77.0167 340.309 77.0167V81.37ZM481.789 218.497C481.789 185.725 481.794 160.926 479.22 141.78C476.637 122.572 471.423 108.727 460.751 98.0548L457.673 101.133C467.401 110.862 472.388 123.634 474.905 142.36C477.431 161.149 477.436 185.602 477.436 218.497H481.789ZM227.124 77.0167C194.352 77.0167 169.553 77.0121 150.407 79.5862C131.199 82.1687 117.354 87.3827 106.682 98.0548L109.76 101.133C119.488 91.4046 132.261 86.4183 150.987 83.9006C169.776 81.3746 194.228 81.37 227.124 81.37V77.0167ZM89.9969 218.497C89.9969 185.602 90.0016 161.149 92.5276 142.36C95.0452 123.634 100.032 110.862 109.76 101.133L106.682 98.0548C96.0097 108.727 90.7957 122.572 88.2132 141.78C85.6391 160.926 85.6437 185.725 85.6437 218.497H89.9969Z" fill="white"/>
</g>
<path d="M236.304 256.583C236.304 259.261 236.594 261.433 237.101 263.026C237.68 264.618 238.404 266.356 239.417 268.238C239.779 268.817 239.924 269.396 239.924 269.903C239.924 270.627 239.49 271.351 238.549 272.075L233.988 275.115C233.336 275.55 232.685 275.767 232.106 275.767C231.382 275.767 230.658 275.405 229.934 274.753C228.92 273.667 228.052 272.509 227.328 271.351C226.604 270.12 225.88 268.745 225.084 267.08C219.437 273.74 212.343 277.07 203.8 277.07C197.719 277.07 192.869 275.332 189.322 271.857C185.775 268.383 183.965 263.75 183.965 257.958C183.965 251.805 186.137 246.81 190.553 243.045C194.968 239.281 200.832 237.399 208.289 237.399C210.75 237.399 213.284 237.616 215.962 237.978C218.641 238.34 221.392 238.919 224.287 239.571V234.286C224.287 228.784 223.129 224.947 220.885 222.703C218.568 220.459 214.659 219.373 209.085 219.373C206.551 219.373 203.945 219.663 201.267 220.314C198.588 220.966 195.982 221.762 193.448 222.776C192.29 223.282 191.421 223.572 190.915 223.717C190.408 223.861 190.046 223.934 189.756 223.934C188.743 223.934 188.236 223.21 188.236 221.69V218.142C188.236 216.984 188.381 216.115 188.743 215.609C189.105 215.102 189.756 214.595 190.77 214.088C193.303 212.785 196.344 211.699 199.891 210.831C203.438 209.89 207.203 209.455 211.184 209.455C219.799 209.455 226.097 211.41 230.151 215.319C234.133 219.228 236.16 225.164 236.16 233.128V256.583H236.304ZM206.913 267.586C209.302 267.586 211.763 267.152 214.37 266.283C216.976 265.415 219.292 263.822 221.247 261.65C222.405 260.275 223.274 258.754 223.708 257.017C224.143 255.28 224.432 253.18 224.432 250.719V247.678C222.333 247.172 220.089 246.737 217.772 246.448C215.455 246.158 213.211 246.013 210.967 246.013C206.117 246.013 202.57 246.955 200.181 248.909C197.792 250.864 196.633 253.615 196.633 257.234C196.633 260.637 197.502 263.17 199.312 264.908C201.049 266.718 203.583 267.586 206.913 267.586ZM265.044 275.405C263.741 275.405 262.872 275.188 262.293 274.681C261.714 274.246 261.207 273.233 260.773 271.857L243.761 215.898C243.327 214.45 243.109 213.509 243.109 213.003C243.109 211.844 243.688 211.193 244.847 211.193H251.941C253.317 211.193 254.258 211.41 254.765 211.917C255.344 212.351 255.778 213.365 256.212 214.74L268.374 262.664L279.667 214.74C280.029 213.292 280.464 212.351 281.043 211.917C281.622 211.482 282.636 211.193 283.939 211.193H289.73C291.105 211.193 292.047 211.41 292.626 211.917C293.205 212.351 293.712 213.365 294.001 214.74L305.439 263.243L317.963 214.74C318.397 213.292 318.904 212.351 319.411 211.917C319.99 211.482 320.931 211.193 322.234 211.193H328.967C330.125 211.193 330.776 211.772 330.776 213.003C330.776 213.365 330.704 213.726 330.632 214.161C330.559 214.595 330.414 215.174 330.125 215.971L312.678 271.93C312.244 273.378 311.737 274.319 311.158 274.753C310.579 275.188 309.638 275.477 308.407 275.477H302.181C300.806 275.477 299.865 275.26 299.286 274.753C298.707 274.246 298.2 273.305 297.91 271.857L286.689 225.164L275.541 271.785C275.179 273.233 274.745 274.174 274.166 274.681C273.586 275.188 272.573 275.405 271.27 275.405H265.044ZM358.068 277.359C354.304 277.359 350.539 276.925 346.92 276.056C343.3 275.188 340.477 274.246 338.595 273.161C337.436 272.509 336.64 271.785 336.351 271.134C336.061 270.482 335.916 269.758 335.916 269.107V265.415C335.916 263.894 336.495 263.17 337.581 263.17C338.016 263.17 338.45 263.243 338.884 263.388C339.319 263.532 339.97 263.822 340.694 264.112C343.155 265.197 345.834 266.066 348.657 266.645C351.553 267.224 354.376 267.514 357.272 267.514C361.833 267.514 365.38 266.718 367.841 265.125C370.303 263.532 371.606 261.216 371.606 258.248C371.606 256.221 370.954 254.556 369.651 253.18C368.348 251.805 365.887 250.574 362.339 249.416L351.843 246.158C346.558 244.493 342.649 242.032 340.26 238.774C337.871 235.589 336.64 232.042 336.64 228.277C336.64 225.237 337.292 222.558 338.595 220.242C339.898 217.925 341.635 215.898 343.807 214.306C345.979 212.641 348.44 211.41 351.336 210.541C354.231 209.673 357.272 209.311 360.457 209.311C362.05 209.311 363.715 209.383 365.308 209.6C366.973 209.817 368.493 210.107 370.013 210.396C371.461 210.758 372.836 211.12 374.139 211.555C375.442 211.989 376.456 212.423 377.18 212.858C378.193 213.437 378.917 214.016 379.352 214.668C379.786 215.247 380.003 216.043 380.003 217.057V220.459C380.003 221.979 379.424 222.776 378.338 222.776C377.759 222.776 376.818 222.486 375.587 221.907C371.461 220.025 366.828 219.084 361.688 219.084C357.562 219.084 354.304 219.735 352.06 221.11C349.816 222.486 348.657 224.585 348.657 227.553C348.657 229.58 349.381 231.318 350.829 232.693C352.277 234.069 354.955 235.444 358.792 236.675L369.072 239.932C374.284 241.598 378.049 243.914 380.293 246.882C382.537 249.85 383.623 253.253 383.623 257.017C383.623 260.13 382.971 262.953 381.741 265.415C380.437 267.876 378.7 270.048 376.456 271.785C374.212 273.595 371.533 274.898 368.42 275.839C365.163 276.853 361.76 277.359 358.068 277.359Z" fill="#252F3E"/>
<path fill-rule="evenodd" clip-rule="evenodd" d="M371.75 312.542C347.933 330.133 313.33 339.472 283.576 339.472C241.878 339.472 204.307 324.052 175.929 298.426C173.685 296.399 175.712 293.648 178.39 295.24C209.085 313.049 246.946 323.835 286.11 323.835C312.533 323.835 341.563 318.333 368.275 307.04C372.257 305.23 375.659 309.646 371.75 312.542Z" fill="#FF9900"/>
<path fill-rule="evenodd" clip-rule="evenodd" d="M381.667 301.249C378.627 297.34 361.542 299.367 353.796 300.308C351.48 300.598 351.118 298.571 353.217 297.05C366.827 287.495 389.196 290.245 391.802 293.431C394.408 296.688 391.078 319.058 378.337 329.772C376.383 331.437 374.5 330.568 375.369 328.396C378.265 321.229 384.708 305.086 381.667 301.249Z" fill="#FF9900"/>
<defs>
<filter id="filter0_d_590_3933" x="0.755341" y="0.834885" width="565.923" height="565.922" filterUnits="userSpaceOnUse" color-interpolation-filters="sRGB">
<feFlood flood-opacity="0" result="BackgroundImageFix"/>
<feColorMatrix in="SourceAlpha" type="matrix" values="0 0 0 0 0 0 0 0 0 0 0 0 0 0 0 0 0 0 127 0" result="hardAlpha"/>
<feOffset dy="8.7065"/>
<feGaussianBlur stdDeviation="43.5325"/>
<feComposite in2="hardAlpha" operator="out"/>
<feColorMatrix type="matrix" values="0 0 0 0 0.0367917 0 0 0 0 0.0348958 0 0 0 0 0.0484375 0 0 0 0.1 0"/>
<feBlend mode="normal" in2="BackgroundImageFix" result="effect1_dropShadow_590_3933"/>
<feBlend mode="normal" in="SourceGraphic" in2="effect1_dropShadow_590_3933" result="shape"/>
</filter>
</defs>
</svg>
