<svg width="567" height="567" viewBox="0 0 567 567" fill="none" xmlns="http://www.w3.org/2000/svg">
<g filter="url(#filter0_d_590_3909)">
<rect x="87.1797" y="79.353" width="391.792" height="391.792" rx="69.652" fill="white"/>
<rect x="88.268" y="80.4413" width="389.616" height="389.616" rx="68.5637" stroke="white" stroke-width="2.17662"/>
</g>
<path d="M274.395 169.387C279.792 166.298 286.821 166.284 292.214 169.387C319.342 184.716 346.479 200.021 373.603 215.36C378.705 218.233 382.117 223.911 382.065 229.789V322.015C382.103 328.137 378.354 333.95 372.971 336.759C345.932 352.003 318.907 367.266 291.872 382.511C286.363 385.66 279.192 385.418 273.856 382.01C265.749 377.311 257.629 372.635 249.522 367.94C247.865 366.952 245.998 366.166 244.828 364.56C245.862 363.166 247.711 362.993 249.213 362.384C252.597 361.308 255.705 359.581 258.814 357.905C259.6 357.367 260.559 357.573 261.313 358.054C268.245 362.029 275.116 366.119 282.071 370.055C283.555 370.912 285.057 369.775 286.325 369.068C312.859 354.071 339.426 339.131 365.955 324.13C366.938 323.657 367.481 322.614 367.402 321.537C367.42 291.114 367.406 260.685 367.411 230.262C367.523 229.04 366.816 227.917 365.712 227.417C338.766 212.242 311.834 197.044 284.893 181.866C284.427 181.545 283.874 181.373 283.307 181.372C282.741 181.371 282.187 181.542 281.72 181.861C254.779 197.044 227.852 212.256 200.911 227.43C199.81 227.931 199.071 229.036 199.202 230.262C199.207 260.685 199.202 291.114 199.202 321.542C199.155 322.067 199.271 322.594 199.533 323.052C199.795 323.51 200.191 323.877 200.667 324.102C207.857 328.179 215.055 332.227 222.249 336.29C226.302 338.472 231.278 339.768 235.743 338.097C239.684 336.683 242.446 332.662 242.371 328.479C242.408 298.233 242.352 267.982 242.399 237.741C242.3 236.399 243.574 235.289 244.879 235.416C248.334 235.393 251.793 235.369 255.247 235.425C256.689 235.393 257.681 236.838 257.503 238.191C257.489 268.628 257.54 299.066 257.48 329.503C257.489 337.615 254.156 346.442 246.653 350.411C237.409 355.199 225.984 354.184 216.852 349.592C208.947 345.646 201.402 340.99 193.637 336.762C188.241 333.969 184.51 328.133 184.548 322.016V229.789C184.491 223.789 188.039 218.008 193.3 215.177C220.334 199.92 247.365 184.651 274.395 169.387Z" fill="#8CC84B"/>
<path d="M297.979 233.272C309.77 232.513 322.393 232.823 333.003 238.631C341.218 243.083 345.773 252.425 345.918 261.551C345.688 262.782 344.401 263.461 343.226 263.377C339.805 263.372 336.383 263.423 332.962 263.354C331.511 263.409 330.668 262.071 330.485 260.788C329.502 256.422 327.121 252.097 323.011 249.991C316.701 246.832 309.386 246.99 302.506 247.056C297.483 247.323 292.082 247.758 287.827 250.711C284.56 252.949 283.568 257.465 284.734 261.102C285.833 263.714 288.848 264.557 291.315 265.334C305.524 269.05 320.582 268.68 334.52 273.571C340.291 275.565 345.936 279.441 347.911 285.483C350.495 293.581 349.363 303.26 343.601 309.761C338.929 315.111 332.124 318.022 325.337 319.604C316.308 321.617 306.938 321.668 297.769 320.774C289.147 319.791 280.175 317.526 273.519 311.652C267.827 306.71 265.047 299.01 265.323 291.578C265.389 290.322 266.639 289.447 267.841 289.55C271.286 289.522 274.731 289.513 278.176 289.555C279.552 289.457 280.573 290.646 280.643 291.943C281.279 296.103 282.842 300.47 286.47 302.937C293.472 307.454 302.258 307.145 310.275 307.271C316.917 306.976 324.373 306.887 329.793 302.497C332.653 299.993 333.5 295.804 332.727 292.2C331.89 289.157 328.707 287.739 325.974 286.812C311.946 282.375 296.72 283.985 282.828 278.967C277.189 276.974 271.735 273.206 269.568 267.412C266.545 259.212 267.93 249.069 274.296 242.787C280.502 236.539 289.461 234.133 297.979 233.272V233.272Z" fill="#8CC84B"/>
<defs>
<filter id="filter0_d_590_3909" x="0.114723" y="0.99456" width="565.923" height="565.922" filterUnits="userSpaceOnUse" color-interpolation-filters="sRGB">
<feFlood flood-opacity="0" result="BackgroundImageFix"/>
<feColorMatrix in="SourceAlpha" type="matrix" values="0 0 0 0 0 0 0 0 0 0 0 0 0 0 0 0 0 0 127 0" result="hardAlpha"/>
<feOffset dy="8.7065"/>
<feGaussianBlur stdDeviation="43.5325"/>
<feComposite in2="hardAlpha" operator="out"/>
<feColorMatrix type="matrix" values="0 0 0 0 0.0367917 0 0 0 0 0.0348958 0 0 0 0 0.0484375 0 0 0 0.1 0"/>
<feBlend mode="normal" in2="BackgroundImageFix" result="effect1_dropShadow_590_3909"/>
<feBlend mode="normal" in="SourceGraphic" in2="effect1_dropShadow_590_3909" result="shape"/>
</filter>
</defs>
</svg>
