<svg width="567" height="567" viewBox="0 0 567 567" fill="none" xmlns="http://www.w3.org/2000/svg">
<g filter="url(#filter0_d_140_133)">
<path d="M87.6211 217.992C87.6211 152.323 87.6211 119.489 108.022 99.0886C128.422 78.688 161.257 78.688 226.925 78.688H340.109C405.778 78.688 438.612 78.688 459.013 99.0886C479.413 119.489 479.413 152.323 479.413 217.992V331.176C479.413 396.845 479.413 429.679 459.013 450.08C438.612 470.48 405.778 470.48 340.11 470.48H226.925C161.257 470.48 128.422 470.48 108.022 450.08C87.6211 429.679 87.6211 396.845 87.6211 331.176V217.992Z" fill="white"/>
<path d="M108.022 450.08L106.483 451.619L108.022 450.08ZM459.013 450.08L460.552 451.619L459.013 450.08ZM459.013 99.0886L460.552 97.5495L459.013 99.0886ZM108.022 99.0886L106.483 97.5495L108.022 99.0886ZM226.925 80.8646H340.109V76.5114H226.925V80.8646ZM477.237 217.992V331.176H481.59V217.992H477.237ZM340.11 468.304H226.925V472.657H340.11V468.304ZM89.7977 331.176V217.992H85.4445V331.176H89.7977ZM226.925 468.304C194.029 468.304 169.576 468.299 150.788 465.773C132.062 463.255 119.289 458.269 109.561 448.541L106.483 451.619C117.155 462.291 130.999 467.505 150.208 470.087C169.354 472.662 194.152 472.657 226.925 472.657V468.304ZM85.4445 331.176C85.4445 363.949 85.4398 388.748 88.014 407.894C90.5965 427.102 95.8105 440.947 106.483 451.619L109.561 448.541C99.8323 438.812 94.846 426.039 92.3284 407.314C89.8023 388.525 89.7977 364.072 89.7977 331.176H85.4445ZM477.237 331.176C477.237 364.072 477.232 388.525 474.706 407.313C472.189 426.039 467.202 438.812 457.474 448.541L460.552 451.619C471.224 440.947 476.438 427.102 479.021 407.894C481.595 388.748 481.59 363.949 481.59 331.176H477.237ZM340.11 472.657C372.882 472.657 397.681 472.662 416.827 470.087C436.035 467.505 449.88 462.291 460.552 451.619L457.474 448.541C447.745 458.269 434.972 463.255 416.247 465.773C397.458 468.299 373.005 468.304 340.11 468.304V472.657ZM340.109 80.8646C373.005 80.8646 397.458 80.8692 416.247 83.3953C434.972 85.9129 447.745 90.8992 457.474 100.628L460.552 97.5495C449.88 86.8774 436.035 81.6634 416.827 79.0808C397.681 76.5067 372.882 76.5114 340.109 76.5114V80.8646ZM481.59 217.992C481.59 185.219 481.595 160.421 479.021 141.275C476.438 122.066 471.224 108.222 460.552 97.5495L457.474 100.628C467.202 110.356 472.189 123.129 474.706 141.855C477.232 160.643 477.237 185.096 477.237 217.992H481.59ZM226.925 76.5114C194.152 76.5114 169.354 76.5067 150.208 79.0808C130.999 81.6634 117.155 86.8774 106.483 97.5495L109.561 100.628C119.289 90.8992 132.062 85.9129 150.788 83.3953C169.576 80.8692 194.029 80.8646 226.925 80.8646V76.5114ZM89.7977 217.992C89.7977 185.096 89.8023 160.643 92.3284 141.855C94.846 123.129 99.8323 110.356 109.561 100.628L106.483 97.5495C95.8105 108.222 90.5965 122.066 88.014 141.275C85.4398 160.421 85.4445 185.219 85.4445 217.992H89.7977Z" fill="white"/>
</g>
<path d="M225.074 243.973H266.127V247.22H228.837V271.66H263.904V274.908H228.837V301.74H266.555V304.988H225.074V243.973ZM269.805 243.973H274.167L293.496 270.806L313.253 243.973L340.125 209.889L295.976 273.626L318.727 304.988H314.194L293.496 276.446L272.713 304.988H268.266L291.187 273.626L269.805 243.973ZM320.352 247.22V243.973H367.135V247.22H345.582V304.988H341.819V247.22H320.352Z" fill="black"/>
<path d="M173.715 243.973H178.419L243.284 340.571L216.479 304.987L177.649 248.587L177.478 304.987H173.715V243.973Z" fill="black"/>
<path d="M366.756 300.761C367.534 300.761 368.101 300.168 368.101 299.402C368.101 298.636 367.534 298.043 366.756 298.043C365.987 298.043 365.41 298.636 365.41 299.402C365.41 300.168 365.987 300.761 366.756 300.761ZM370.453 297.185C370.453 299.447 372.092 300.925 374.481 300.925C377.025 300.925 378.563 299.402 378.563 296.757V287.444H376.513V296.748C376.513 298.216 375.771 299 374.462 299C373.291 299 372.495 298.271 372.467 297.185H370.453ZM381.245 297.067C381.391 299.42 383.359 300.925 386.288 300.925C389.418 300.925 391.377 299.347 391.377 296.83C391.377 294.85 390.26 293.756 387.551 293.127L386.096 292.771C384.375 292.369 383.679 291.831 383.679 290.892C383.679 289.706 384.76 288.931 386.38 288.931C387.917 288.931 388.979 289.688 389.171 290.901H391.167C391.048 288.685 389.089 287.125 386.407 287.125C383.524 287.125 381.602 288.685 381.602 291.029C381.602 292.962 382.691 294.112 385.08 294.668L386.782 295.078C388.531 295.489 389.299 296.091 389.299 297.094C389.299 298.262 388.091 299.11 386.444 299.11C384.677 299.11 383.451 298.316 383.277 297.067H381.245Z" fill="black"/>
<defs>
<filter id="filter0_d_140_133" x="0.556122" y="0.329514" width="565.923" height="565.922" filterUnits="userSpaceOnUse" color-interpolation-filters="sRGB">
<feFlood flood-opacity="0" result="BackgroundImageFix"/>
<feColorMatrix in="SourceAlpha" type="matrix" values="0 0 0 0 0 0 0 0 0 0 0 0 0 0 0 0 0 0 127 0" result="hardAlpha"/>
<feOffset dy="8.7065"/>
<feGaussianBlur stdDeviation="43.5325"/>
<feComposite in2="hardAlpha" operator="out"/>
<feColorMatrix type="matrix" values="0 0 0 0 0.0367917 0 0 0 0 0.0348958 0 0 0 0 0.0484375 0 0 0 0.1 0"/>
<feBlend mode="normal" in2="BackgroundImageFix" result="effect1_dropShadow_140_133"/>
<feBlend mode="normal" in="SourceGraphic" in2="effect1_dropShadow_140_133" result="shape"/>
</filter>
</defs>
</svg>
