<svg width="567" height="567" viewBox="0 0 567 567" fill="none" xmlns="http://www.w3.org/2000/svg">
<g filter="url(#filter0_d_590_3970)">
<path d="M88 218.405C88 152.736 88 119.902 108.401 99.5012C128.801 79.1006 161.635 79.1006 227.304 79.1006H340.488C406.157 79.1006 438.991 79.1006 459.392 99.5012C479.792 119.902 479.792 152.736 479.792 218.405V331.589C479.792 397.257 479.792 430.092 459.392 450.492C438.991 470.893 406.157 470.893 340.488 470.893H227.304C161.635 470.893 128.801 470.893 108.401 450.492C88 430.092 88 397.258 88 331.589V218.405Z" fill="white"/>
<path d="M108.401 450.492L106.861 452.031L108.401 450.492ZM459.392 450.492L460.931 452.031L459.392 450.492ZM459.392 99.5012L460.931 97.9621L459.392 99.5012ZM108.401 99.5012L106.861 97.9621L108.401 99.5012ZM227.304 81.2772H340.488V76.924H227.304V81.2772ZM477.616 218.405V331.589H481.969V218.405H477.616ZM340.488 468.716H227.304V473.07H340.488V468.716ZM90.1766 331.589V218.405H85.8234V331.589H90.1766ZM227.304 468.716C194.408 468.716 169.955 468.712 151.167 466.186C132.441 463.668 119.668 458.682 109.94 448.953L106.861 452.031C117.534 462.704 131.378 467.918 150.587 470.5C169.733 473.074 194.531 473.07 227.304 473.07V468.716ZM85.8234 331.589C85.8234 364.362 85.8188 389.16 88.3929 408.306C90.9754 427.515 96.1894 441.359 106.861 452.031L109.94 448.953C100.211 439.225 95.2249 426.452 92.7073 407.726C90.1812 388.938 90.1766 364.485 90.1766 331.589H85.8234ZM477.616 331.589C477.616 364.485 477.611 388.938 475.085 407.726C472.567 426.452 467.581 439.225 457.853 448.953L460.931 452.031C471.603 441.359 476.817 427.515 479.4 408.306C481.974 389.16 481.969 364.362 481.969 331.589H477.616ZM340.488 473.07C373.261 473.07 398.06 473.074 417.206 470.5C436.414 467.918 450.259 462.704 460.931 452.031L457.853 448.953C448.124 458.682 435.351 463.668 416.626 466.186C397.837 468.712 373.384 468.716 340.488 468.716V473.07ZM340.488 81.2772C373.384 81.2772 397.837 81.2818 416.625 83.8079C435.351 86.3255 448.124 91.3118 457.853 101.04L460.931 97.9621C450.259 87.29 436.414 82.076 417.206 79.4934C398.06 76.9193 373.261 76.924 340.488 76.924V81.2772ZM481.969 218.405C481.969 185.632 481.974 160.833 479.4 141.687C476.817 122.479 471.603 108.634 460.931 97.9621L457.853 101.04C467.581 110.769 472.567 123.542 475.085 142.267C477.611 161.056 477.616 185.509 477.616 218.405H481.969ZM227.304 76.924C194.531 76.924 169.733 76.9193 150.587 79.4934C131.378 82.076 117.534 87.29 106.861 97.9621L109.94 101.04C119.668 91.3118 132.441 86.3255 151.167 83.8079C169.955 81.2818 194.408 81.2772 227.304 81.2772V76.924ZM90.1766 218.405C90.1766 185.509 90.1812 161.056 92.7073 142.267C95.2249 123.542 100.211 110.769 109.94 101.04L106.861 97.9621C96.1894 108.634 90.9754 122.479 88.3929 141.687C85.8188 160.833 85.8234 185.632 85.8234 218.405H90.1766Z" fill="white"/>
</g>
<path d="M387.631 295.667C386.365 291.824 383.05 289.147 378.764 288.505C376.742 288.202 374.427 288.331 371.688 288.898C366.913 289.885 363.371 290.262 360.785 290.334C370.544 273.813 378.478 254.973 383.046 237.239C390.433 208.562 386.486 195.498 381.873 189.589C369.666 173.948 351.857 165.546 330.372 165.289C318.91 165.148 308.848 167.418 303.599 169.049C298.712 168.185 293.458 167.702 287.944 167.613C277.609 167.447 268.477 169.707 260.674 174.35C256.354 172.885 249.421 170.82 241.414 169.503C222.584 166.402 207.406 168.818 196.305 176.682C182.863 186.204 176.631 202.747 177.783 225.853C178.149 233.189 182.242 255.509 188.685 276.677C192.388 288.844 196.337 298.947 200.422 306.71C206.215 317.717 212.414 324.199 219.373 326.527C223.273 327.83 230.359 328.742 237.813 322.518C238.757 323.665 240.018 324.805 241.691 325.864C243.815 327.207 246.413 328.305 249.007 328.956C258.357 331.299 267.114 330.713 274.586 327.428C274.632 328.761 274.667 330.034 274.697 331.133C274.746 332.916 274.796 334.665 274.861 336.3C275.304 347.356 276.054 355.953 278.276 361.967C278.398 362.298 278.562 362.802 278.736 363.337C279.844 366.741 281.698 372.441 286.416 376.904C291.3 381.527 297.209 382.945 302.62 382.945C305.334 382.945 307.923 382.588 310.195 382.1C318.29 380.36 327.485 377.71 334.136 368.213C340.424 359.235 343.481 345.713 344.034 324.407C344.106 323.805 344.172 323.229 344.235 322.681L344.367 321.555L345.849 321.686L346.231 321.712C354.476 322.089 364.558 320.335 370.751 317.451C375.643 315.174 391.322 306.874 387.631 295.667Z" fill="white"/>
<path d="M373.535 297.846C349.017 302.918 347.331 294.594 347.331 294.594C373.217 256.076 384.039 207.184 374.701 195.218C349.224 162.577 305.123 178.014 304.387 178.414L304.15 178.457C299.306 177.449 293.886 176.849 287.792 176.749C276.699 176.567 268.284 179.665 261.898 184.521C261.898 184.521 183.226 152.021 186.886 225.395C187.664 241.005 209.197 343.505 234.88 312.545C244.268 301.224 253.338 291.652 253.338 291.652C257.843 294.653 263.236 296.184 268.89 295.634L269.329 295.26C269.192 296.665 269.255 298.04 269.505 299.668C262.888 307.081 264.833 308.382 251.606 311.112C238.222 313.879 246.085 318.802 251.218 320.09C257.441 321.65 271.839 323.861 281.567 310.205L281.179 311.763C283.771 313.845 285.591 325.307 285.286 335.697C284.981 346.087 284.778 353.22 286.82 358.792C288.863 364.364 290.899 376.9 308.287 373.164C322.815 370.042 330.345 361.951 331.392 348.455C332.135 338.861 333.818 340.279 333.923 331.701L335.273 327.64C336.828 314.634 335.52 310.438 344.471 312.39L346.647 312.581C353.234 312.882 361.857 311.518 366.918 309.16C377.815 304.089 384.278 295.621 373.533 297.846H373.535Z" fill="#336791"/>
<path d="M266.501 232.377C264.291 232.068 262.291 232.354 261.278 233.122C260.709 233.555 260.533 234.056 260.485 234.4C260.358 235.314 260.996 236.324 261.389 236.845C262.498 238.32 264.119 239.333 265.723 239.556C265.956 239.589 266.188 239.604 266.418 239.604C269.093 239.604 271.525 237.515 271.74 235.974C272.008 234.042 269.212 232.755 266.501 232.378V232.377ZM339.694 232.438C339.483 230.924 336.797 230.493 334.248 230.848C331.702 231.204 329.234 232.356 329.44 233.873C329.605 235.053 331.73 237.066 334.244 237.066C334.457 237.066 334.671 237.052 334.887 237.022C336.565 236.789 337.797 235.72 338.382 235.104C339.273 234.165 339.789 233.118 339.694 232.438Z" fill="white"/>
<path d="M381.69 297.271C380.755 294.436 377.746 293.524 372.747 294.559C357.903 297.631 352.588 295.503 350.842 294.214C362.38 276.59 371.871 255.284 376.992 235.407C379.417 225.991 380.757 217.247 380.866 210.119C380.987 202.296 379.658 196.547 376.918 193.036C365.87 178.879 349.654 171.285 330.025 171.077C316.53 170.925 305.129 174.387 302.919 175.361C298.264 174.201 293.19 173.488 287.666 173.397C277.535 173.233 268.779 175.665 261.529 180.622C258.38 179.447 250.241 176.645 240.288 175.037C223.082 172.26 209.408 174.364 199.65 181.296C188.008 189.568 182.632 204.354 183.674 225.242C184.024 232.27 188.017 253.889 194.319 274.593C202.614 301.844 211.631 317.27 221.119 320.444C222.229 320.815 223.509 321.075 224.922 321.075C228.382 321.075 232.626 319.511 237.04 314.189C242.425 307.711 247.995 301.391 253.743 295.236C257.473 297.243 261.57 298.364 265.761 298.477C265.769 298.587 265.78 298.697 265.789 298.806C265.068 299.668 264.362 300.543 263.671 301.43C260.767 305.126 260.163 305.896 250.817 307.826C248.158 308.376 241.097 309.835 240.993 314.799C240.881 320.222 249.34 322.499 250.304 322.741C253.663 323.584 256.898 324 259.984 324C267.488 324 274.093 321.526 279.371 316.74C279.208 336.073 280.012 355.123 282.327 360.927C284.223 365.679 288.854 377.291 303.484 377.29C305.631 377.29 307.994 377.04 310.593 376.481C325.862 373.199 332.492 366.432 335.057 351.513C336.43 343.54 338.785 324.5 339.893 314.288C342.231 315.019 345.241 315.354 348.495 315.353C355.281 315.353 363.112 313.907 368.023 311.622C373.54 309.052 383.495 302.748 381.69 297.271ZM345.329 228.26C345.279 231.274 344.865 234.012 344.426 236.869C343.954 239.941 343.466 243.118 343.343 246.975C343.222 250.728 343.689 254.63 344.141 258.404C345.054 266.025 345.992 273.872 342.364 281.615C341.761 280.544 341.224 279.437 340.756 278.301C340.305 277.205 339.326 275.444 337.97 273.007C332.694 263.52 320.341 241.304 326.665 232.238C328.548 229.54 333.329 226.766 345.329 228.26ZM330.783 177.182C348.371 177.571 362.283 184.169 372.133 196.79C379.688 206.472 371.369 250.523 347.286 288.526C347.044 288.217 346.8 287.909 346.556 287.603L346.251 287.221C352.474 276.914 351.257 266.717 350.174 257.677C349.729 253.967 349.308 250.462 349.415 247.171C349.526 243.682 349.986 240.689 350.431 237.796C350.978 234.231 351.534 230.541 351.381 226.192C351.495 225.736 351.542 225.197 351.481 224.557C351.09 220.386 346.341 207.904 336.663 196.607C331.369 190.427 323.648 183.512 313.107 178.848C317.641 177.906 323.841 177.027 330.783 177.182ZM232.368 310.293C227.504 316.158 224.146 315.033 223.041 314.665C215.844 312.257 207.493 297.004 200.13 272.815C193.759 251.885 190.036 230.839 189.741 224.937C188.811 206.272 193.323 193.265 203.153 186.274C219.149 174.899 245.449 181.708 256.017 185.161C255.865 185.311 255.707 185.452 255.557 185.605C238.215 203.167 238.626 233.172 238.669 235.006C238.668 235.714 238.727 236.716 238.808 238.094C239.106 243.141 239.662 252.533 238.178 263.17C236.799 273.055 239.838 282.729 246.513 289.714C247.198 290.429 247.918 291.11 248.671 291.754C245.7 294.945 239.242 302.002 232.368 310.293ZM250.9 285.499C245.52 279.869 243.076 272.039 244.195 264.013C245.762 252.777 245.184 242.991 244.873 237.733C244.829 236.998 244.79 236.353 244.768 235.844C247.301 233.592 259.042 227.284 267.414 229.208C271.235 230.085 273.563 232.694 274.531 237.181C279.54 260.413 275.193 270.096 271.701 277.878C270.981 279.48 270.301 280.996 269.721 282.563L269.271 283.775C268.132 286.839 267.071 289.687 266.414 292.392C260.695 292.376 255.131 289.926 250.9 285.498V285.499ZM251.778 316.83C250.108 316.411 248.606 315.685 247.724 315.082C248.461 314.735 249.771 314.262 252.043 313.793C263.038 311.523 264.736 309.921 268.444 305.2C269.294 304.117 270.258 302.89 271.592 301.396L271.594 301.394C273.582 299.162 274.491 299.541 276.14 300.227C277.476 300.781 278.778 302.46 279.305 304.309C279.555 305.182 279.835 306.839 278.918 308.128C271.172 319.004 259.884 318.864 251.778 316.83ZM309.32 370.524C295.869 373.414 291.107 366.532 287.968 358.665C285.943 353.585 284.947 330.682 285.653 305.388C285.662 305.051 285.615 304.726 285.522 304.421C285.44 303.816 285.314 303.219 285.146 302.633C284.096 298.953 281.536 295.874 278.465 294.598C277.245 294.091 275.006 293.161 272.315 293.851C272.889 291.481 273.884 288.803 274.963 285.904L275.416 284.684C275.925 283.31 276.565 281.885 277.241 280.377C280.896 272.236 285.901 261.085 280.469 235.894C278.434 226.458 271.639 221.85 261.339 222.921C255.165 223.562 249.515 226.06 246.697 227.492C246.091 227.8 245.537 228.098 245.02 228.387C245.806 218.88 248.777 201.113 259.892 189.872C266.89 182.796 276.21 179.3 287.565 179.489C309.939 179.856 324.287 191.37 332.384 200.965C339.362 209.233 343.14 217.562 344.648 222.054C333.308 220.897 325.596 223.142 321.687 228.746C313.182 240.938 326.34 264.601 332.664 275.974C333.824 278.058 334.824 279.859 335.139 280.625C337.199 285.629 339.865 288.971 341.811 291.409C342.408 292.157 342.987 292.882 343.427 293.515C339.993 294.508 333.824 296.802 334.386 308.269C333.932 314.022 330.708 340.96 329.07 350.478C326.908 363.052 322.294 367.735 309.32 370.525V370.524ZM365.465 306.096C361.953 307.731 356.076 308.956 350.493 309.22C344.326 309.51 341.187 308.527 340.448 307.923C340.102 300.777 342.754 300.031 345.561 299.241C346.002 299.117 346.433 298.995 346.848 298.85C347.106 299.06 347.389 299.269 347.699 299.474C352.655 302.755 361.495 303.109 373.976 300.525L374.113 300.498C372.429 302.076 369.549 304.194 365.465 306.096Z" fill="white"/>
<defs>
<filter id="filter0_d_590_3970" x="0.935028" y="0.742111" width="565.923" height="565.922" filterUnits="userSpaceOnUse" color-interpolation-filters="sRGB">
<feFlood flood-opacity="0" result="BackgroundImageFix"/>
<feColorMatrix in="SourceAlpha" type="matrix" values="0 0 0 0 0 0 0 0 0 0 0 0 0 0 0 0 0 0 127 0" result="hardAlpha"/>
<feOffset dy="8.7065"/>
<feGaussianBlur stdDeviation="43.5325"/>
<feComposite in2="hardAlpha" operator="out"/>
<feColorMatrix type="matrix" values="0 0 0 0 0.0367917 0 0 0 0 0.0348958 0 0 0 0 0.0484375 0 0 0 0.1 0"/>
<feBlend mode="normal" in2="BackgroundImageFix" result="effect1_dropShadow_590_3970"/>
<feBlend mode="normal" in="SourceGraphic" in2="effect1_dropShadow_590_3970" result="shape"/>
</filter>
</defs>
</svg>
