<svg width="567" height="567" viewBox="0 0 567 567" fill="none" xmlns="http://www.w3.org/2000/svg">
<g filter="url(#filter0_d_590_3918)">
<path d="M88.043 218.187C88.043 152.518 88.043 119.684 108.444 99.2834C128.844 78.8828 161.678 78.8828 227.347 78.8828H340.531C406.2 78.8828 439.034 78.8828 459.435 99.2834C479.835 119.684 479.835 152.518 479.835 218.187V331.371C479.835 397.04 479.835 429.874 459.435 450.275C439.034 470.675 406.2 470.675 340.531 470.675H227.347C161.678 470.675 128.844 470.675 108.444 450.275C88.043 429.874 88.043 397.04 88.043 331.371V218.187Z" fill="white"/>
<path d="M108.444 450.275L106.904 451.814L108.444 450.275ZM459.435 450.275L460.974 451.814L459.435 450.275ZM459.435 99.2834L460.974 97.7443L459.435 99.2834ZM108.444 99.2834L106.904 97.7443L108.444 99.2834ZM227.347 81.0594H340.531V76.7062H227.347V81.0594ZM477.659 218.187V331.371H482.012V218.187H477.659ZM340.531 468.499H227.347V472.852H340.531V468.499ZM90.2196 331.371V218.187H85.8663V331.371H90.2196ZM227.347 468.499C194.451 468.499 169.998 468.494 151.21 465.968C132.484 463.45 119.711 458.464 109.983 448.735L106.904 451.814C117.577 462.486 131.421 467.7 150.63 470.282C169.776 472.856 194.574 472.852 227.347 472.852V468.499ZM85.8663 331.371C85.8663 364.144 85.8617 388.942 88.4358 408.088C91.0184 427.297 96.2323 441.142 106.904 451.814L109.983 448.735C100.254 439.007 95.2679 426.234 92.7503 407.508C90.2242 388.72 90.2196 364.267 90.2196 331.371H85.8663ZM477.659 331.371C477.659 364.267 477.654 388.72 475.128 407.508C472.61 426.234 467.624 439.007 457.896 448.735L460.974 451.814C471.646 441.142 476.86 427.297 479.442 408.088C482.017 388.942 482.012 364.144 482.012 331.371H477.659ZM340.531 472.852C373.304 472.852 398.103 472.856 417.249 470.282C436.457 467.7 450.302 462.486 460.974 451.814L457.896 448.735C448.167 458.464 435.394 463.45 416.668 465.968C397.88 468.494 373.427 468.499 340.531 468.499V472.852ZM340.531 81.0594C373.427 81.0594 397.88 81.0641 416.668 83.5901C435.394 86.1077 448.167 91.094 457.896 100.823L460.974 97.7443C450.302 87.0722 436.457 81.8582 417.249 79.2757C398.103 76.7016 373.304 76.7062 340.531 76.7062V81.0594ZM482.012 218.187C482.012 185.414 482.017 160.616 479.442 141.47C476.86 122.261 471.646 108.416 460.974 97.7443L457.896 100.823C467.624 110.551 472.61 123.324 475.128 142.05C477.654 160.838 477.659 185.291 477.659 218.187H482.012ZM227.347 76.7062C194.574 76.7062 169.776 76.7016 150.63 79.2757C131.421 81.8582 117.577 87.0722 106.904 97.7443L109.983 100.823C119.711 91.094 132.484 86.1077 151.21 83.5901C169.998 81.0641 194.451 81.0594 227.347 81.0594V76.7062ZM90.2196 218.187C90.2196 185.291 90.2242 160.838 92.7503 142.05C95.2679 123.324 100.254 110.551 109.983 100.823L106.904 97.7443C96.2323 108.416 91.0184 122.261 88.4358 141.47C85.8617 160.616 85.8663 185.414 85.8663 218.187H90.2196Z" fill="white"/>
</g>
<path d="M284.772 293.086C295.37 293.086 303.961 284.494 303.961 273.896C303.961 263.298 295.37 254.707 284.772 254.707C274.174 254.707 265.582 263.298 265.582 273.896C265.582 284.494 274.174 293.086 284.772 293.086Z" fill="#61DAFB"/>
<path d="M284.77 313.212C341.638 313.212 387.738 295.61 387.738 273.896C387.738 252.183 341.638 234.581 284.77 234.581C227.901 234.581 181.801 252.183 181.801 273.896C181.801 295.61 227.901 313.212 284.77 313.212Z" stroke="#61DAFB" stroke-width="10.8831"/>
<path d="M250.724 293.554C279.158 342.803 317.452 373.926 336.257 363.07C355.061 352.213 347.254 303.488 318.82 254.238C290.386 204.989 252.092 173.866 233.288 184.723C214.484 195.579 222.29 244.305 250.724 293.554Z" stroke="#61DAFB" stroke-width="10.8831"/>
<path d="M250.724 254.239C222.29 303.488 214.484 352.213 233.288 363.07C252.092 373.926 290.386 342.803 318.82 293.554C347.254 244.305 355.061 195.579 336.257 184.723C317.452 173.866 279.158 204.989 250.724 254.239Z" stroke="#61DAFB" stroke-width="10.8831"/>
<defs>
<filter id="filter0_d_590_3918" x="0.977997" y="0.524338" width="565.923" height="565.922" filterUnits="userSpaceOnUse" color-interpolation-filters="sRGB">
<feFlood flood-opacity="0" result="BackgroundImageFix"/>
<feColorMatrix in="SourceAlpha" type="matrix" values="0 0 0 0 0 0 0 0 0 0 0 0 0 0 0 0 0 0 127 0" result="hardAlpha"/>
<feOffset dy="8.7065"/>
<feGaussianBlur stdDeviation="43.5325"/>
<feComposite in2="hardAlpha" operator="out"/>
<feColorMatrix type="matrix" values="0 0 0 0 0.0367917 0 0 0 0 0.0348958 0 0 0 0 0.0484375 0 0 0 0.1 0"/>
<feBlend mode="normal" in2="BackgroundImageFix" result="effect1_dropShadow_590_3918"/>
<feBlend mode="normal" in="SourceGraphic" in2="effect1_dropShadow_590_3918" result="shape"/>
</filter>
</defs>
</svg>
