<svg width="567" height="567" viewBox="0 0 567 567" fill="none" xmlns="http://www.w3.org/2000/svg">
<g filter="url(#filter0_d_590_3965)">
<path d="M87.5664 218.521C87.5664 152.853 87.5664 120.018 107.967 99.6179C128.368 79.2173 161.202 79.2173 226.87 79.2173H340.055C405.723 79.2173 438.558 79.2173 458.958 99.6179C479.359 120.018 479.359 152.853 479.359 218.521V331.706C479.359 397.374 479.359 430.208 458.958 450.609C438.558 471.01 405.723 471.01 340.055 471.01H226.87C161.202 471.01 128.368 471.01 107.967 450.609C87.5664 430.208 87.5664 397.374 87.5664 331.706V218.521Z" fill="white"/>
<path d="M107.967 450.609L106.428 452.148L107.967 450.609ZM458.958 450.609L460.497 452.148L458.958 450.609ZM458.958 99.6179L460.497 98.0788L458.958 99.6179ZM107.967 99.6179L106.428 98.0788L107.967 99.6179ZM226.87 81.3939H340.055V77.0407H226.87V81.3939ZM477.182 218.521V331.706H481.535V218.521H477.182ZM340.055 468.833H226.87V473.186H340.055V468.833ZM89.743 331.706V218.521H85.3898V331.706H89.743ZM226.87 468.833C193.975 468.833 169.522 468.828 150.733 466.302C132.007 463.785 119.235 458.798 109.506 449.07L106.428 452.148C117.1 462.82 130.945 468.034 150.153 470.617C169.299 473.191 194.098 473.186 226.87 473.186V468.833ZM85.3898 331.706C85.3898 364.478 85.3852 389.277 87.9593 408.423C90.5418 427.631 95.7558 441.476 106.428 452.148L109.506 449.07C99.7776 439.341 94.7913 426.569 92.2737 407.843C89.7477 389.054 89.743 364.602 89.743 331.706H85.3898ZM477.182 331.706C477.182 364.601 477.178 389.054 474.651 407.843C472.134 426.569 467.148 439.341 457.419 449.07L460.497 452.148C471.169 441.476 476.383 427.631 478.966 408.423C481.54 389.277 481.535 364.478 481.535 331.706H477.182ZM340.055 473.186C372.828 473.186 397.626 473.191 416.772 470.617C435.981 468.034 449.825 462.82 460.497 452.148L457.419 449.07C447.691 458.798 434.918 463.785 416.192 466.302C397.403 468.828 372.951 468.833 340.055 468.833V473.186ZM340.055 81.3939C372.951 81.3939 397.403 81.3985 416.192 83.9246C434.918 86.4422 447.691 91.4285 457.419 101.157L460.497 98.0788C449.825 87.4067 435.981 82.1927 416.772 79.6101C397.626 77.036 372.827 77.0407 340.055 77.0407V81.3939ZM481.535 218.521C481.535 185.749 481.54 160.95 478.966 141.804C476.383 122.595 471.169 108.751 460.497 98.0788L457.419 101.157C467.148 110.885 472.134 123.658 474.651 142.384C477.178 161.173 477.182 185.625 477.182 218.521H481.535ZM226.87 77.0407C194.098 77.0407 169.299 77.036 150.153 79.6101C130.945 82.1927 117.1 87.4067 106.428 98.0788L109.506 101.157C119.235 91.4285 132.007 86.4422 150.733 83.9246C169.522 81.3985 193.975 81.3939 226.87 81.3939V77.0407ZM89.743 218.521C89.743 185.626 89.7477 161.173 92.2737 142.384C94.7913 123.658 99.7776 110.885 109.506 101.157L106.428 98.0788C95.7558 108.751 90.5418 122.596 87.9593 141.804C85.3852 160.95 85.3898 185.749 85.3898 218.521H89.743Z" fill="white"/>
</g>
<path d="M282.488 168.086C222.39 168.086 173.656 216.811 173.656 276.918C173.656 325.003 204.84 365.797 248.082 380.188C253.521 381.195 255.518 377.827 255.518 374.953C255.518 372.358 255.417 363.784 255.371 354.69C225.093 361.274 218.704 341.85 218.704 341.85C213.753 329.27 206.62 325.926 206.62 325.926C196.746 319.171 207.365 319.309 207.365 319.309C218.293 320.077 224.048 330.525 224.048 330.525C233.755 347.163 249.508 342.352 255.718 339.572C256.695 332.537 259.515 327.737 262.628 325.019C238.455 322.267 213.043 312.935 213.043 271.234C213.043 259.352 217.295 249.643 224.257 242.022C223.127 239.28 219.402 228.212 225.311 213.221C225.311 213.221 234.45 210.296 255.248 224.377C263.928 221.964 273.239 220.756 282.488 220.715C291.737 220.756 301.054 221.964 309.752 224.377C330.525 210.296 339.651 213.221 339.651 213.221C345.574 228.212 341.848 239.28 340.718 242.022C347.696 249.643 351.918 259.352 351.918 271.234C351.918 313.034 326.458 322.238 302.224 324.932C306.128 328.31 309.606 334.933 309.606 345.086C309.606 359.648 309.48 371.368 309.48 374.953C309.48 377.849 311.439 381.242 316.956 380.174C360.174 365.767 391.319 324.987 391.319 276.918C391.319 216.811 342.592 168.086 282.488 168.086Z" fill="#161614"/>
<path d="M214.415 323.119C214.176 323.659 213.324 323.821 212.55 323.451C211.76 323.096 211.317 322.358 211.573 321.816C211.807 321.259 212.659 321.104 213.447 321.478C214.238 321.832 214.689 322.576 214.415 323.119ZM219.768 327.895C219.249 328.377 218.235 328.153 217.546 327.393C216.834 326.634 216.701 325.62 217.227 325.131C217.763 324.65 218.747 324.875 219.46 325.634C220.172 326.402 220.31 327.41 219.768 327.896L219.768 327.895ZM223.441 334.007C222.774 334.47 221.683 334.036 221.009 333.068C220.343 332.101 220.343 330.94 221.024 330.475C221.7 330.01 222.774 330.428 223.457 331.388C224.122 332.372 224.122 333.533 223.44 334.008L223.441 334.007ZM229.652 341.085C229.055 341.743 227.785 341.567 226.855 340.669C225.904 339.791 225.638 338.546 226.237 337.888C226.84 337.229 228.118 337.414 229.055 338.304C230 339.18 230.288 340.435 229.652 341.085H229.652ZM237.678 343.475C237.416 344.327 236.192 344.715 234.96 344.353C233.729 343.98 232.923 342.981 233.172 342.12C233.428 341.262 234.657 340.858 235.899 341.246C237.128 341.617 237.935 342.608 237.679 343.475H237.678ZM246.815 344.488C246.846 345.386 245.8 346.131 244.506 346.147C243.204 346.175 242.152 345.449 242.138 344.566C242.138 343.66 243.16 342.922 244.461 342.901C245.755 342.875 246.815 343.596 246.815 344.488ZM255.789 344.144C255.944 345.02 255.045 345.92 253.76 346.159C252.497 346.389 251.328 345.849 251.166 344.981C251.009 344.083 251.926 343.184 253.187 342.951C254.474 342.727 255.625 343.254 255.789 344.144Z" fill="#161614"/>
<defs>
<filter id="filter0_d_590_3965" x="0.501434" y="0.85881" width="565.923" height="565.922" filterUnits="userSpaceOnUse" color-interpolation-filters="sRGB">
<feFlood flood-opacity="0" result="BackgroundImageFix"/>
<feColorMatrix in="SourceAlpha" type="matrix" values="0 0 0 0 0 0 0 0 0 0 0 0 0 0 0 0 0 0 127 0" result="hardAlpha"/>
<feOffset dy="8.7065"/>
<feGaussianBlur stdDeviation="43.5325"/>
<feComposite in2="hardAlpha" operator="out"/>
<feColorMatrix type="matrix" values="0 0 0 0 0.0367917 0 0 0 0 0.0348958 0 0 0 0 0.0484375 0 0 0 0.1 0"/>
<feBlend mode="normal" in2="BackgroundImageFix" result="effect1_dropShadow_590_3965"/>
<feBlend mode="normal" in="SourceGraphic" in2="effect1_dropShadow_590_3965" result="shape"/>
</filter>
</defs>
</svg>
