<svg width="567" height="567" viewBox="0 0 567 567" fill="none" xmlns="http://www.w3.org/2000/svg">
<g filter="url(#filter0_d_590_3978)">
<path d="M87.6445 218.521C87.6445 152.853 87.6445 120.018 108.045 99.6179C128.446 79.2173 161.28 79.2173 226.948 79.2173H340.133C405.801 79.2173 438.636 79.2173 459.036 99.6179C479.437 120.018 479.437 152.853 479.437 218.521V331.706C479.437 397.374 479.437 430.208 459.036 450.609C438.636 471.01 405.801 471.01 340.133 471.01H226.949C161.28 471.01 128.446 471.01 108.045 450.609C87.6445 430.208 87.6445 397.374 87.6445 331.706V218.521Z" fill="white"/>
<path d="M108.045 450.609L106.506 452.148L108.045 450.609ZM459.036 450.609L460.575 452.148L459.036 450.609ZM459.036 99.6179L460.575 98.0788L459.036 99.6179ZM108.045 99.6179L106.506 98.0788L108.045 99.6179ZM226.948 81.3939H340.133V77.0407H226.948V81.3939ZM477.26 218.521V331.706H481.614V218.521H477.26ZM340.133 468.833H226.949V473.186H340.133V468.833ZM89.8212 331.706V218.521H85.4679V331.706H89.8212ZM226.949 468.833C194.053 468.833 169.6 468.828 150.811 466.302C132.086 463.785 119.313 458.798 109.584 449.07L106.506 452.148C117.178 462.82 131.023 468.034 150.231 470.617C169.377 473.191 194.176 473.186 226.949 473.186V468.833ZM85.4679 331.706C85.4679 364.478 85.4633 389.277 88.0374 408.423C90.6199 427.631 95.8339 441.476 106.506 452.148L109.584 449.07C99.8558 439.341 94.8694 426.569 92.3518 407.843C89.8258 389.054 89.8212 364.602 89.8212 331.706H85.4679ZM477.26 331.706C477.26 364.601 477.256 389.054 474.73 407.843C472.212 426.569 467.226 439.341 457.497 449.07L460.575 452.148C471.248 441.476 476.462 427.631 479.044 408.423C481.618 389.277 481.614 364.478 481.614 331.706H477.26ZM340.133 473.186C372.906 473.186 397.704 473.191 416.85 470.617C436.059 468.034 449.903 462.82 460.575 452.148L457.497 449.07C447.769 458.798 434.996 463.785 416.27 466.302C397.482 468.828 373.029 468.833 340.133 468.833V473.186ZM340.133 81.3939C373.029 81.3939 397.482 81.3985 416.27 83.9246C434.996 86.4422 447.769 91.4285 457.497 101.157L460.575 98.0788C449.903 87.4067 436.059 82.1927 416.85 79.6101C397.704 77.036 372.906 77.0407 340.133 77.0407V81.3939ZM481.614 218.521C481.614 185.749 481.618 160.95 479.044 141.804C476.462 122.595 471.248 108.751 460.575 98.0788L457.497 101.157C467.226 110.885 472.212 123.658 474.73 142.384C477.256 161.173 477.26 185.625 477.26 218.521H481.614ZM226.948 77.0407C194.176 77.0407 169.377 77.036 150.231 79.6101C131.023 82.1927 117.178 87.4067 106.506 98.0788L109.584 101.157C119.313 91.4285 132.086 86.4422 150.811 83.9246C169.6 81.3985 194.053 81.3939 226.948 81.3939V77.0407ZM89.8212 218.521C89.8212 185.626 89.8258 161.173 92.3518 142.384C94.8694 123.658 99.8558 110.885 109.584 101.157L106.506 98.0788C95.8339 108.751 90.6199 122.596 88.0374 141.804C85.4633 160.95 85.4679 185.749 85.4679 218.521H89.8212Z" fill="white"/>
</g>
<path fill-rule="evenodd" clip-rule="evenodd" d="M302.34 190.32L347.037 216.127C348.327 214.762 349.808 213.59 351.433 212.648C360.703 207.319 372.526 210.483 377.911 219.753C383.24 229.023 380.076 240.846 370.806 246.23C369.192 247.159 367.454 247.852 365.644 248.286V299.919C367.434 300.354 369.154 301.041 370.751 301.961C380.076 307.345 383.24 319.169 377.856 328.439C372.526 337.708 360.648 340.872 351.378 335.544C349.582 334.514 347.964 333.2 346.586 331.654L302.162 357.303C302.813 359.273 303.143 361.334 303.141 363.409C303.141 374.066 294.482 382.782 283.768 382.782C273.055 382.782 264.396 374.121 264.396 363.409C264.396 361.504 264.67 359.665 265.18 357.928L220.495 332.128C219.219 333.466 217.759 334.617 216.159 335.544C206.834 340.872 195.01 337.708 189.681 328.439C184.353 319.169 187.517 307.345 196.786 301.961C198.383 301.041 200.103 300.353 201.893 299.918V248.286C200.083 247.852 198.344 247.159 196.731 246.23C187.461 240.902 184.297 229.023 189.626 219.753C194.955 210.483 206.833 207.319 216.103 212.648C217.72 213.585 219.193 214.749 220.479 216.105L265.188 190.291C264.661 188.503 264.394 186.647 264.396 184.782C264.396 174.07 273.055 165.41 283.768 165.41C294.482 165.41 303.141 174.07 303.141 184.782C303.141 186.708 302.861 188.566 302.34 190.32ZM297.684 198.272L342.487 224.139C341.773 226.633 341.569 229.245 341.885 231.819C342.201 234.394 343.032 236.878 344.328 239.125C347.056 243.87 351.498 247.015 356.429 248.241V299.938C356.178 299.999 355.928 300.066 355.679 300.137L297.163 198.789C297.34 198.62 297.514 198.448 297.684 198.272V198.272ZM270.386 198.801L211.871 300.147C211.618 300.074 211.363 300.006 211.107 299.943V248.241C216.038 247.015 220.481 243.87 223.208 239.125C224.507 236.874 225.339 234.384 225.654 231.805C225.969 229.225 225.761 226.608 225.042 224.11L269.833 198.25C270.013 198.437 270.198 198.621 270.386 198.8V198.801ZM289.181 203.391L347.683 304.715C346.343 305.994 345.194 307.459 344.272 309.066C343.353 310.663 342.665 312.382 342.231 314.173H225.308C224.872 312.382 224.184 310.663 223.264 309.066C222.339 307.47 221.193 306.014 219.859 304.74L278.372 203.396C280.126 203.901 281.943 204.157 283.768 204.155C285.648 204.155 287.464 203.889 289.181 203.391ZM298.095 350.358L342.607 324.658C342.473 324.239 342.354 323.815 342.249 323.387H225.283C225.221 323.639 225.154 323.888 225.082 324.137L269.811 349.963C271.618 348.084 273.785 346.591 276.184 345.573C278.583 344.554 281.163 344.032 283.768 344.036C286.465 344.032 289.133 344.592 291.601 345.68C294.068 346.769 296.28 348.363 298.095 350.358Z" fill="#E535AB"/>
<defs>
<filter id="filter0_d_590_3978" x="0.579559" y="0.85881" width="565.923" height="565.922" filterUnits="userSpaceOnUse" color-interpolation-filters="sRGB">
<feFlood flood-opacity="0" result="BackgroundImageFix"/>
<feColorMatrix in="SourceAlpha" type="matrix" values="0 0 0 0 0 0 0 0 0 0 0 0 0 0 0 0 0 0 127 0" result="hardAlpha"/>
<feOffset dy="8.7065"/>
<feGaussianBlur stdDeviation="43.5325"/>
<feComposite in2="hardAlpha" operator="out"/>
<feColorMatrix type="matrix" values="0 0 0 0 0.0367917 0 0 0 0 0.0348958 0 0 0 0 0.0484375 0 0 0 0.1 0"/>
<feBlend mode="normal" in2="BackgroundImageFix" result="effect1_dropShadow_590_3978"/>
<feBlend mode="normal" in="SourceGraphic" in2="effect1_dropShadow_590_3978" result="shape"/>
</filter>
</defs>
</svg>
