<svg width="566" height="567" viewBox="0 0 566 567" fill="none" xmlns="http://www.w3.org/2000/svg">
<g filter="url(#filter0_d_590_3926)">
<rect x="87.0742" y="78.8828" width="391.792" height="391.792" rx="32" fill="white"/>
<rect x="87.5742" y="79.3828" width="390.792" height="390.792" rx="31.5" stroke="white"/>
</g>
<path d="M281.541 165.66L287.349 176.569C288.655 178.582 290.07 180.364 291.736 182.024C296.622 186.848 301.175 191.997 305.366 197.436C315.208 210.359 321.846 224.71 326.587 240.231C329.43 249.712 330.974 259.438 331.089 269.273C331.566 298.675 321.486 323.922 301.163 344.905C297.857 348.232 294.286 351.285 290.485 354.032C288.471 354.032 287.519 352.489 286.689 351.067C285.178 348.431 284.173 345.536 283.724 342.531C283.01 338.974 282.541 335.417 282.772 331.744V330.085C282.609 329.731 280.833 166.496 281.541 165.66Z" fill="#599636"/>
<path d="M281.542 165.299C281.304 164.823 281.066 165.183 280.828 165.415C280.944 167.795 280.114 169.917 278.815 171.944C277.387 173.957 275.496 175.501 273.598 177.161C263.056 186.288 254.758 197.313 248.113 209.644C239.271 226.24 234.714 244.026 233.422 262.75C232.83 269.504 235.558 293.336 237.686 300.212C243.495 318.468 253.928 333.764 267.443 347.04C270.762 350.237 274.312 353.203 277.985 356.052C279.053 356.052 279.169 355.1 279.413 354.393C279.882 352.879 280.238 351.333 280.481 349.768L282.862 331.989L281.542 165.299Z" fill="#6CAC48"/>
<path d="M287.35 361.255C287.588 358.535 288.894 356.277 290.315 354.026C288.887 353.434 287.826 352.257 286.996 350.945C286.281 349.702 285.689 348.392 285.228 347.034C283.568 342.055 283.215 336.832 282.739 331.744V328.663C282.147 329.139 282.024 333.166 282.024 333.764C281.678 339.141 280.965 344.488 279.889 349.768C279.535 351.904 279.297 354.032 277.984 355.93C277.984 356.168 277.984 356.406 278.1 356.76C280.236 363.044 280.821 369.444 281.181 375.967V378.347C281.181 381.19 281.065 380.592 283.426 381.544C284.378 381.898 285.439 382.02 286.391 382.728C287.105 382.728 287.221 382.136 287.221 381.66L286.867 377.749V366.839C286.751 364.935 287.105 363.044 287.343 361.262L287.35 361.255Z" fill="#C2BFBF"/>
<defs>
<filter id="filter0_d_590_3926" x="0.00924683" y="0.524338" width="565.923" height="565.922" filterUnits="userSpaceOnUse" color-interpolation-filters="sRGB">
<feFlood flood-opacity="0" result="BackgroundImageFix"/>
<feColorMatrix in="SourceAlpha" type="matrix" values="0 0 0 0 0 0 0 0 0 0 0 0 0 0 0 0 0 0 127 0" result="hardAlpha"/>
<feOffset dy="8.7065"/>
<feGaussianBlur stdDeviation="43.5325"/>
<feComposite in2="hardAlpha" operator="out"/>
<feColorMatrix type="matrix" values="0 0 0 0 0.0367917 0 0 0 0 0.0348958 0 0 0 0 0.0484375 0 0 0 0.1 0"/>
<feBlend mode="normal" in2="BackgroundImageFix" result="effect1_dropShadow_590_3926"/>
<feBlend mode="normal" in="SourceGraphic" in2="effect1_dropShadow_590_3926" result="shape"/>
</filter>
</defs>
</svg>
