<svg width="567" height="567" viewBox="0 0 567 567" fill="none" xmlns="http://www.w3.org/2000/svg">
<g filter="url(#filter0_d_590_3953)">
<path d="M87.7266 218.521C87.7266 152.853 87.7266 120.018 108.127 99.6179C128.528 79.2173 161.362 79.2173 227.031 79.2173H340.215C405.883 79.2173 438.718 79.2173 459.118 99.6179C479.519 120.018 479.519 152.853 479.519 218.521V331.706C479.519 397.374 479.519 430.208 459.118 450.609C438.718 471.01 405.883 471.01 340.215 471.01H227.031C161.362 471.01 128.528 471.01 108.127 450.609C87.7266 430.208 87.7266 397.374 87.7266 331.706V218.521Z" fill="white"/>
<path d="M108.127 450.609L106.588 452.148L108.127 450.609ZM459.118 450.609L460.657 452.148L459.118 450.609ZM459.118 99.6179L460.657 98.0788L459.118 99.6179ZM108.127 99.6179L106.588 98.0788L108.127 99.6179ZM227.031 81.3939H340.215V77.0407H227.031V81.3939ZM477.342 218.521V331.706H481.696V218.521H477.342ZM340.215 468.833H227.031V473.186H340.215V468.833ZM89.9032 331.706V218.521H85.5499V331.706H89.9032ZM227.031 468.833C194.135 468.833 169.682 468.828 150.893 466.302C132.168 463.785 119.395 458.798 109.666 449.07L106.588 452.148C117.26 462.82 131.105 468.034 150.313 470.617C169.459 473.191 194.258 473.186 227.031 473.186V468.833ZM85.5499 331.706C85.5499 364.478 85.5453 389.277 88.1194 408.423C90.7019 427.631 95.9159 441.476 106.588 452.148L109.666 449.07C99.9378 439.341 94.9515 426.569 92.4339 407.843C89.9078 389.054 89.9032 364.602 89.9032 331.706H85.5499ZM477.342 331.706C477.342 364.601 477.338 389.054 474.812 407.843C472.294 426.569 467.308 439.341 457.579 449.07L460.657 452.148C471.33 441.476 476.544 427.631 479.126 408.423C481.7 389.277 481.696 364.478 481.696 331.706H477.342ZM340.215 473.186C372.988 473.186 397.786 473.191 416.932 470.617C436.141 468.034 449.985 462.82 460.657 452.148L457.579 449.07C447.851 458.798 435.078 463.785 416.352 466.302C397.564 468.828 373.111 468.833 340.215 468.833V473.186ZM340.215 81.3939C373.111 81.3939 397.564 81.3985 416.352 83.9246C435.078 86.4422 447.851 91.4285 457.579 101.157L460.657 98.0788C449.985 87.4067 436.141 82.1927 416.932 79.6101C397.786 77.036 372.988 77.0407 340.215 77.0407V81.3939ZM481.696 218.521C481.696 185.749 481.7 160.95 479.126 141.804C476.544 122.595 471.33 108.751 460.657 98.0788L457.579 101.157C467.308 110.885 472.294 123.658 474.812 142.384C477.338 161.173 477.342 185.625 477.342 218.521H481.696ZM227.031 77.0407C194.258 77.0407 169.459 77.036 150.313 79.6101C131.105 82.1927 117.26 87.4067 106.588 98.0788L109.666 101.157C119.395 91.4285 132.168 86.4422 150.893 83.9246C169.682 81.3985 194.135 81.3939 227.031 81.3939V77.0407ZM89.9032 218.521C89.9032 185.626 89.9078 161.173 92.4339 142.384C94.9515 123.658 99.9378 110.885 109.666 101.157L106.588 98.0788C95.9159 108.751 90.7019 122.596 88.1194 141.804C85.5453 160.95 85.5499 185.749 85.5499 218.521H89.9032Z" fill="white"/>
</g>
<path d="M384.525 324.45C372.909 330.505 312.736 355.246 299.925 361.925C287.114 368.604 279.998 368.54 269.877 363.702C259.758 358.864 195.723 332.998 184.187 327.484C178.423 324.729 175.391 322.403 175.391 320.206V298.205C175.391 298.205 258.757 280.056 272.216 275.228C285.673 270.399 290.343 270.225 301.796 274.42C313.25 278.617 381.734 290.973 393.053 295.119L393.048 316.808C393.05 318.983 390.438 321.369 384.525 324.45Z" fill="#912626"/>
<path d="M384.521 302.579C372.905 308.631 312.734 333.373 299.923 340.051C287.113 346.732 279.997 346.666 269.877 341.828C259.757 336.994 195.724 311.123 184.19 305.613C172.655 300.099 172.414 296.304 183.744 291.868C195.074 287.43 258.756 262.445 272.216 257.617C285.674 252.79 290.343 252.614 301.795 256.811C313.249 261.006 373.062 284.813 384.379 288.958C395.701 293.108 396.136 296.526 384.521 302.579Z" fill="#C6302B"/>
<path d="M384.525 288.852C372.909 294.907 312.736 319.647 299.925 326.329C287.114 333.006 279.998 332.941 269.877 328.103C259.757 323.268 195.723 297.399 184.187 291.885C178.423 289.13 175.391 286.808 175.391 284.61V262.606C175.391 262.606 258.757 244.459 272.216 239.63C285.673 234.802 290.343 234.626 301.796 238.822C313.251 243.018 381.735 255.372 393.053 259.518L393.048 281.21C393.05 283.385 390.438 285.77 384.525 288.852Z" fill="#912626"/>
<path d="M384.521 266.981C372.905 273.035 312.734 297.775 299.923 304.456C287.113 311.134 279.997 311.068 269.877 306.23C259.757 301.396 195.724 275.526 184.19 270.015C172.655 264.503 172.414 260.707 183.744 256.269C195.074 251.833 258.757 226.847 272.216 222.019C285.674 217.192 290.343 217.017 301.795 221.213C313.249 225.408 373.062 249.214 384.379 253.36C395.701 257.51 396.136 260.928 384.521 266.981Z" fill="#C6302B"/>
<path d="M384.525 251.933C372.909 257.987 312.736 282.729 299.925 289.411C287.114 296.088 279.998 296.023 269.877 291.185C259.757 286.35 195.723 260.48 184.187 254.969C178.423 252.211 175.391 249.888 175.391 247.692V225.688C175.391 225.688 258.757 207.541 272.216 202.714C285.673 197.884 290.343 197.711 301.796 201.906C313.251 206.102 381.735 218.455 393.053 222.602L393.048 244.293C393.05 246.465 390.438 248.851 384.525 251.933Z" fill="#912626"/>
<path d="M384.52 230.062C372.905 236.116 312.733 260.858 299.923 267.536C287.113 274.214 279.996 274.148 269.877 269.313C259.757 264.475 195.724 238.607 184.19 233.095C172.655 227.584 172.414 223.787 183.744 219.35C195.074 214.913 258.756 189.931 272.216 185.101C285.673 180.273 290.342 180.099 301.795 184.295C313.249 188.491 373.061 212.297 384.379 216.444C395.701 220.59 396.135 224.009 384.52 230.062Z" fill="#C6302B"/>
<path d="M310.823 208.66L292.109 210.602L287.92 220.683L281.154 209.434L259.545 207.492L275.669 201.677L270.831 192.751L285.927 198.656L300.159 193.996L296.312 203.226L310.823 208.66ZM286.803 257.564L251.877 243.078L301.923 235.396L286.803 257.564ZM238.382 214.263C253.155 214.263 265.13 218.905 265.13 224.63C265.13 230.358 253.155 234.999 238.382 234.999C223.609 234.999 211.633 230.357 211.633 224.63C211.633 218.905 223.609 214.263 238.382 214.263Z" fill="white"/>
<path d="M332.938 211.415L362.557 223.119L332.963 234.813L332.938 211.414" fill="#621B1C"/>
<path d="M300.168 224.377L332.936 211.415L332.962 234.813L329.749 236.069L300.168 224.377Z" fill="#9A2928"/>
<defs>
<filter id="filter0_d_590_3953" x="0.661591" y="0.85881" width="565.923" height="565.922" filterUnits="userSpaceOnUse" color-interpolation-filters="sRGB">
<feFlood flood-opacity="0" result="BackgroundImageFix"/>
<feColorMatrix in="SourceAlpha" type="matrix" values="0 0 0 0 0 0 0 0 0 0 0 0 0 0 0 0 0 0 127 0" result="hardAlpha"/>
<feOffset dy="8.7065"/>
<feGaussianBlur stdDeviation="43.5325"/>
<feComposite in2="hardAlpha" operator="out"/>
<feColorMatrix type="matrix" values="0 0 0 0 0.0367917 0 0 0 0 0.0348958 0 0 0 0 0.0484375 0 0 0 0.1 0"/>
<feBlend mode="normal" in2="BackgroundImageFix" result="effect1_dropShadow_590_3953"/>
<feBlend mode="normal" in="SourceGraphic" in2="effect1_dropShadow_590_3953" result="shape"/>
</filter>
</defs>
</svg>
